<?xml version="1.0" encoding="utf-8" ?>
<svg baseProfile="full" height="350" version="1.1" width="350" xmlns="http://www.w3.org/2000/svg" xmlns:ev="http://www.w3.org/2001/xml-events" xmlns:xlink="http://www.w3.org/1999/xlink"><defs /><path d="M 303.0,120.0 L 303.0,122.0 L 302.0,123.0 L 302.0,130.0 L 301.0,131.0 L 301.0,134.0 L 300.0,135.0 L 300.0,137.0 L 299.0,138.0 L 299.0,139.0 L 298.0,140.0 L 298.0,141.0 L 293.0,146.0 L 292.0,146.0 L 291.0,147.0 L 290.0,147.0 L 289.0,148.0 L 286.0,148.0 L 285.0,149.0 L 281.0,149.0 L 280.0,150.0 L 280.0,151.0 L 282.0,153.0 L 284.0,153.0 L 285.0,154.0 L 287.0,154.0 L 288.0,155.0 L 290.0,155.0 L 291.0,156.0 L 292.0,156.0 L 298.0,162.0 L 298.0,163.0 L 299.0,164.0 L 299.0,165.0 L 300.0,166.0 L 300.0,168.0 L 301.0,169.0 L 301.0,173.0 L 302.0,174.0 L 302.0,180.0 L 303.0,181.0 L 303.0,182.0 L 305.0,182.0 L 306.0,181.0 L 306.0,177.0 L 307.0,176.0 L 307.0,170.0 L 308.0,169.0 L 308.0,166.0 L 309.0,165.0 L 309.0,164.0 L 310.0,163.0 L 310.0,162.0 L 316.0,156.0 L 317.0,156.0 L 318.0,155.0 L 320.0,155.0 L 321.0,154.0 L 323.0,154.0 L 324.0,153.0 L 326.0,153.0 L 328.0,151.0 L 326.0,149.0 L 323.0,149.0 L 322.0,148.0 L 320.0,148.0 L 319.0,147.0 L 318.0,147.0 L 317.0,146.0 L 316.0,146.0 L 315.0,145.0 L 314.0,145.0 L 311.0,142.0 L 311.0,141.0 L 310.0,140.0 L 310.0,139.0 L 309.0,138.0 L 309.0,136.0 L 308.0,135.0 L 308.0,133.0 L 307.0,132.0 L 307.0,126.0 L 306.0,125.0 L 306.0,121.0 L 305.0,120.0 Z" fill="none" stroke="brown" stroke-width="2" /><path d="M 55.0,118.0 L 55.0,120.0 L 54.0,121.0 L 54.0,127.0 L 53.0,128.0 L 53.0,130.0 L 52.0,131.0 L 52.0,132.0 L 48.0,136.0 L 46.0,136.0 L 45.0,137.0 L 43.0,137.0 L 42.0,138.0 L 40.0,138.0 L 39.0,139.0 L 39.0,140.0 L 40.0,141.0 L 42.0,141.0 L 43.0,142.0 L 45.0,142.0 L 46.0,143.0 L 47.0,143.0 L 49.0,145.0 L 50.0,145.0 L 51.0,146.0 L 51.0,147.0 L 53.0,149.0 L 53.0,151.0 L 54.0,152.0 L 54.0,156.0 L 55.0,157.0 L 55.0,160.0 L 57.0,160.0 L 57.0,159.0 L 58.0,158.0 L 58.0,155.0 L 59.0,154.0 L 59.0,149.0 L 60.0,148.0 L 60.0,147.0 L 65.0,142.0 L 66.0,142.0 L 67.0,141.0 L 69.0,141.0 L 70.0,140.0 L 71.0,140.0 L 72.0,139.0 L 72.0,138.0 L 70.0,138.0 L 69.0,137.0 L 67.0,137.0 L 66.0,136.0 L 65.0,136.0 L 64.0,135.0 L 63.0,135.0 L 61.0,133.0 L 61.0,132.0 L 60.0,131.0 L 60.0,129.0 L 59.0,128.0 L 59.0,126.0 L 58.0,125.0 L 58.0,120.0 L 57.0,119.0 L 57.0,118.0 Z" fill="none" stroke="brown" stroke-width="2" /><path d="M 82.0,34.0 L 82.0,37.0 L 81.0,38.0 L 81.0,44.0 L 80.0,45.0 L 80.0,49.0 L 79.0,50.0 L 79.0,52.0 L 78.0,53.0 L 78.0,54.0 L 73.0,59.0 L 72.0,59.0 L 71.0,60.0 L 70.0,60.0 L 69.0,61.0 L 66.0,61.0 L 65.0,62.0 L 62.0,62.0 L 61.0,63.0 L 60.0,63.0 L 59.0,64.0 L 59.0,66.0 L 60.0,66.0 L 61.0,67.0 L 64.0,67.0 L 65.0,68.0 L 68.0,68.0 L 69.0,69.0 L 70.0,69.0 L 72.0,71.0 L 73.0,71.0 L 76.0,74.0 L 76.0,75.0 L 78.0,77.0 L 78.0,78.0 L 79.0,79.0 L 79.0,81.0 L 80.0,82.0 L 80.0,85.0 L 81.0,86.0 L 81.0,91.0 L 82.0,92.0 L 82.0,95.0 L 84.0,95.0 L 85.0,94.0 L 85.0,93.0 L 86.0,92.0 L 86.0,91.0 L 85.0,90.0 L 86.0,89.0 L 86.0,85.0 L 87.0,84.0 L 87.0,81.0 L 88.0,80.0 L 88.0,78.0 L 89.0,77.0 L 89.0,75.0 L 95.0,69.0 L 96.0,69.0 L 97.0,68.0 L 99.0,68.0 L 100.0,67.0 L 103.0,67.0 L 104.0,66.0 L 106.0,66.0 L 107.0,65.0 L 107.0,64.0 L 106.0,63.0 L 103.0,63.0 L 102.0,62.0 L 100.0,62.0 L 99.0,61.0 L 97.0,61.0 L 96.0,60.0 L 95.0,60.0 L 90.0,55.0 L 90.0,54.0 L 89.0,53.0 L 89.0,52.0 L 88.0,51.0 L 88.0,49.0 L 87.0,48.0 L 87.0,46.0 L 86.0,45.0 L 86.0,40.0 L 85.0,39.0 L 85.0,34.0 Z" fill="none" stroke="brown" stroke-width="2" /><path d="M 188.0,26.0 L 183.0,31.0 L 183.0,32.0 L 180.0,35.0 L 180.0,36.0 L 177.0,39.0 L 177.0,40.0 L 173.0,44.0 L 173.0,45.0 L 169.0,49.0 L 169.0,50.0 L 164.0,55.0 L 164.0,56.0 L 160.0,60.0 L 160.0,61.0 L 155.0,66.0 L 155.0,67.0 L 151.0,71.0 L 151.0,72.0 L 147.0,76.0 L 147.0,77.0 L 143.0,81.0 L 143.0,82.0 L 140.0,85.0 L 140.0,86.0 L 135.0,91.0 L 135.0,92.0 L 130.0,97.0 L 130.0,98.0 L 125.0,103.0 L 125.0,105.0 L 124.0,106.0 L 124.0,108.0 L 125.0,109.0 L 125.0,116.0 L 126.0,117.0 L 126.0,127.0 L 127.0,128.0 L 127.0,133.0 L 128.0,134.0 L 128.0,140.0 L 129.0,141.0 L 129.0,147.0 L 130.0,148.0 L 130.0,155.0 L 131.0,156.0 L 131.0,162.0 L 132.0,163.0 L 132.0,173.0 L 133.0,174.0 L 133.0,181.0 L 134.0,182.0 L 134.0,189.0 L 135.0,190.0 L 135.0,194.0 L 136.0,195.0 L 136.0,203.0 L 137.0,204.0 L 137.0,211.0 L 138.0,212.0 L 138.0,218.0 L 139.0,219.0 L 139.0,225.0 L 138.0,226.0 L 137.0,226.0 L 136.0,225.0 L 134.0,225.0 L 133.0,224.0 L 132.0,224.0 L 131.0,223.0 L 130.0,223.0 L 128.0,221.0 L 127.0,221.0 L 126.0,220.0 L 125.0,220.0 L 123.0,218.0 L 122.0,218.0 L 120.0,216.0 L 119.0,216.0 L 118.0,215.0 L 117.0,215.0 L 114.0,212.0 L 113.0,212.0 L 111.0,210.0 L 110.0,210.0 L 102.0,202.0 L 102.0,201.0 L 96.0,195.0 L 95.0,195.0 L 89.0,189.0 L 88.0,189.0 L 86.0,187.0 L 85.0,187.0 L 84.0,186.0 L 82.0,186.0 L 81.0,185.0 L 74.0,185.0 L 73.0,186.0 L 72.0,186.0 L 69.0,189.0 L 69.0,192.0 L 70.0,193.0 L 70.0,195.0 L 71.0,196.0 L 71.0,197.0 L 73.0,199.0 L 73.0,201.0 L 74.0,202.0 L 74.0,203.0 L 75.0,204.0 L 75.0,205.0 L 74.0,206.0 L 73.0,206.0 L 71.0,204.0 L 70.0,204.0 L 66.0,200.0 L 66.0,199.0 L 56.0,189.0 L 55.0,189.0 L 53.0,187.0 L 51.0,187.0 L 50.0,186.0 L 39.0,186.0 L 38.0,187.0 L 37.0,187.0 L 34.0,190.0 L 34.0,196.0 L 35.0,197.0 L 35.0,199.0 L 36.0,200.0 L 36.0,201.0 L 37.0,202.0 L 36.0,203.0 L 34.0,203.0 L 33.0,202.0 L 32.0,202.0 L 31.0,201.0 L 30.0,201.0 L 29.0,200.0 L 27.0,200.0 L 26.0,199.0 L 24.0,199.0 L 23.0,198.0 L 20.0,198.0 L 19.0,197.0 L 11.0,197.0 L 10.0,198.0 L 7.0,198.0 L 6.0,199.0 L 5.0,199.0 L 3.0,201.0 L 3.0,203.0 L 2.0,204.0 L 2.0,207.0 L 3.0,208.0 L 3.0,209.0 L 8.0,214.0 L 8.0,215.0 L 10.0,217.0 L 11.0,217.0 L 13.0,219.0 L 13.0,220.0 L 14.0,221.0 L 15.0,221.0 L 24.0,230.0 L 25.0,230.0 L 33.0,238.0 L 34.0,238.0 L 36.0,240.0 L 36.0,241.0 L 35.0,242.0 L 33.0,242.0 L 32.0,241.0 L 30.0,241.0 L 29.0,240.0 L 25.0,240.0 L 24.0,239.0 L 21.0,239.0 L 20.0,240.0 L 8.0,240.0 L 7.0,241.0 L 6.0,241.0 L 5.0,242.0 L 4.0,242.0 L 0.0,246.0 L 0.0,253.0 L 1.0,253.0 L 3.0,255.0 L 4.0,255.0 L 5.0,256.0 L 6.0,256.0 L 7.0,257.0 L 8.0,257.0 L 9.0,258.0 L 10.0,258.0 L 11.0,259.0 L 12.0,259.0 L 14.0,261.0 L 15.0,261.0 L 16.0,262.0 L 17.0,262.0 L 18.0,263.0 L 19.0,263.0 L 20.0,264.0 L 21.0,264.0 L 22.0,265.0 L 23.0,265.0 L 24.0,266.0 L 25.0,266.0 L 26.0,267.0 L 27.0,267.0 L 28.0,268.0 L 29.0,268.0 L 30.0,269.0 L 31.0,269.0 L 32.0,270.0 L 33.0,270.0 L 34.0,271.0 L 35.0,271.0 L 36.0,272.0 L 37.0,272.0 L 38.0,273.0 L 39.0,273.0 L 40.0,274.0 L 41.0,274.0 L 42.0,275.0 L 43.0,275.0 L 44.0,276.0 L 45.0,276.0 L 46.0,277.0 L 47.0,277.0 L 49.0,279.0 L 50.0,279.0 L 51.0,280.0 L 52.0,280.0 L 53.0,281.0 L 54.0,281.0 L 56.0,283.0 L 57.0,283.0 L 58.0,284.0 L 59.0,284.0 L 60.0,285.0 L 61.0,285.0 L 62.0,286.0 L 63.0,286.0 L 64.0,287.0 L 65.0,287.0 L 66.0,288.0 L 67.0,288.0 L 68.0,289.0 L 69.0,289.0 L 70.0,290.0 L 71.0,290.0 L 72.0,291.0 L 73.0,291.0 L 74.0,292.0 L 75.0,292.0 L 76.0,293.0 L 78.0,293.0 L 79.0,294.0 L 82.0,294.0 L 83.0,295.0 L 86.0,295.0 L 87.0,296.0 L 90.0,296.0 L 91.0,297.0 L 94.0,297.0 L 95.0,298.0 L 98.0,298.0 L 99.0,299.0 L 102.0,299.0 L 103.0,300.0 L 107.0,300.0 L 108.0,301.0 L 112.0,301.0 L 113.0,302.0 L 117.0,302.0 L 118.0,303.0 L 121.0,303.0 L 122.0,304.0 L 125.0,304.0 L 126.0,305.0 L 128.0,305.0 L 129.0,306.0 L 130.0,306.0 L 131.0,307.0 L 133.0,307.0 L 134.0,308.0 L 136.0,308.0 L 137.0,309.0 L 138.0,309.0 L 139.0,310.0 L 142.0,310.0 L 143.0,311.0 L 144.0,311.0 L 145.0,312.0 L 147.0,312.0 L 148.0,313.0 L 152.0,313.0 L 153.0,314.0 L 156.0,314.0 L 157.0,315.0 L 174.0,315.0 L 175.0,314.0 L 182.0,314.0 L 183.0,313.0 L 190.0,313.0 L 191.0,312.0 L 196.0,312.0 L 197.0,311.0 L 201.0,311.0 L 202.0,310.0 L 205.0,310.0 L 206.0,309.0 L 212.0,309.0 L 213.0,308.0 L 217.0,308.0 L 218.0,307.0 L 223.0,307.0 L 224.0,306.0 L 230.0,306.0 L 231.0,305.0 L 236.0,305.0 L 237.0,304.0 L 249.0,304.0 L 250.0,303.0 L 258.0,303.0 L 259.0,304.0 L 262.0,304.0 L 263.0,305.0 L 265.0,305.0 L 266.0,306.0 L 269.0,306.0 L 270.0,307.0 L 272.0,307.0 L 273.0,308.0 L 275.0,308.0 L 276.0,309.0 L 277.0,309.0 L 278.0,310.0 L 279.0,310.0 L 280.0,311.0 L 281.0,311.0 L 282.0,312.0 L 283.0,312.0 L 284.0,313.0 L 285.0,313.0 L 287.0,315.0 L 288.0,315.0 L 290.0,317.0 L 291.0,317.0 L 294.0,320.0 L 295.0,320.0 L 297.0,322.0 L 298.0,322.0 L 299.0,323.0 L 303.0,323.0 L 304.0,322.0 L 306.0,322.0 L 307.0,321.0 L 308.0,321.0 L 309.0,320.0 L 310.0,320.0 L 312.0,318.0 L 313.0,318.0 L 314.0,317.0 L 315.0,317.0 L 317.0,315.0 L 318.0,315.0 L 322.0,311.0 L 322.0,310.0 L 323.0,309.0 L 324.0,309.0 L 325.0,308.0 L 325.0,307.0 L 329.0,303.0 L 329.0,302.0 L 333.0,298.0 L 333.0,297.0 L 335.0,295.0 L 335.0,294.0 L 337.0,292.0 L 337.0,291.0 L 339.0,289.0 L 339.0,288.0 L 340.0,287.0 L 340.0,286.0 L 341.0,285.0 L 341.0,284.0 L 343.0,282.0 L 343.0,281.0 L 344.0,280.0 L 344.0,279.0 L 345.0,278.0 L 345.0,276.0 L 346.0,275.0 L 346.0,273.0 L 347.0,272.0 L 347.0,270.0 L 348.0,269.0 L 348.0,267.0 L 349.0,266.0 L 349.0,265.0 L 346.0,262.0 L 345.0,262.0 L 344.0,261.0 L 343.0,261.0 L 342.0,260.0 L 341.0,260.0 L 339.0,258.0 L 337.0,258.0 L 335.0,256.0 L 333.0,256.0 L 331.0,254.0 L 330.0,254.0 L 328.0,252.0 L 327.0,252.0 L 325.0,250.0 L 324.0,250.0 L 319.0,245.0 L 318.0,245.0 L 315.0,242.0 L 314.0,242.0 L 309.0,237.0 L 308.0,237.0 L 305.0,234.0 L 304.0,234.0 L 302.0,232.0 L 301.0,232.0 L 299.0,230.0 L 298.0,230.0 L 297.0,229.0 L 296.0,229.0 L 295.0,228.0 L 294.0,228.0 L 292.0,226.0 L 291.0,226.0 L 290.0,225.0 L 288.0,225.0 L 287.0,224.0 L 286.0,224.0 L 285.0,223.0 L 283.0,223.0 L 282.0,222.0 L 280.0,222.0 L 279.0,221.0 L 277.0,221.0 L 276.0,220.0 L 274.0,220.0 L 273.0,219.0 L 269.0,219.0 L 268.0,218.0 L 263.0,218.0 L 262.0,217.0 L 248.0,217.0 L 247.0,218.0 L 244.0,218.0 L 243.0,217.0 L 243.0,212.0 L 244.0,211.0 L 244.0,203.0 L 245.0,202.0 L 245.0,193.0 L 246.0,192.0 L 246.0,185.0 L 247.0,184.0 L 247.0,174.0 L 248.0,173.0 L 248.0,167.0 L 249.0,166.0 L 249.0,160.0 L 250.0,159.0 L 250.0,152.0 L 251.0,151.0 L 251.0,144.0 L 252.0,143.0 L 252.0,136.0 L 253.0,135.0 L 253.0,127.0 L 254.0,126.0 L 254.0,118.0 L 255.0,117.0 L 255.0,110.0 L 256.0,109.0 L 256.0,101.0 L 254.0,99.0 L 254.0,98.0 L 248.0,92.0 L 248.0,91.0 L 241.0,84.0 L 241.0,83.0 L 235.0,77.0 L 235.0,76.0 L 227.0,68.0 L 227.0,67.0 L 217.0,57.0 L 217.0,56.0 L 210.0,49.0 L 210.0,48.0 L 202.0,40.0 L 202.0,39.0 L 198.0,35.0 L 198.0,34.0 L 190.0,26.0 Z" fill="none" stroke="brown" stroke-width="2" /></svg>